<svg width="7" height="10" viewBox="0 0 7 10" fill="none" xmlns="http://www.w3.org/2000/svg">
<path d="M5.77841 0L6.28977 0.613636C6.09091 0.806818 5.8608 0.941761 5.59943 1.01847C5.33807 1.09517 5.04261 1.14205 4.71307 1.15909C4.38352 1.17614 4.01705 1.19318 3.61364 1.21023C3.15909 1.22727 2.78267 1.33807 2.48438 1.54261C2.18608 1.74716 1.95597 2.04261 1.79403 2.42898C1.6321 2.81534 1.52841 3.28977 1.48295 3.85227H1.56818C1.78977 3.44318 2.09659 3.14205 2.48864 2.94886C2.88068 2.75568 3.30114 2.65909 3.75 2.65909C4.26136 2.65909 4.72159 2.77841 5.13068 3.01705C5.53977 3.25568 5.86364 3.60938 6.10227 4.07812C6.34091 4.54688 6.46023 5.125 6.46023 5.8125C6.46023 6.49716 6.33807 7.08807 6.09375 7.58523C5.85227 8.08239 5.51278 8.46591 5.07528 8.7358C4.64063 9.00284 4.13068 9.13636 3.54545 9.13636C2.96023 9.13636 2.44744 8.99858 2.0071 8.72301C1.56676 8.4446 1.22443 8.03267 0.980114 7.48722C0.735795 6.93892 0.613636 6.26136 0.613636 5.45455V4.75568C0.613636 3.2983 0.860795 2.19318 1.35511 1.44034C1.85227 0.6875 2.59943 0.298295 3.59659 0.272727C3.94886 0.261364 4.26278 0.258523 4.53835 0.264204C4.81392 0.269886 5.05398 0.257102 5.25852 0.225852C5.46307 0.194602 5.63636 0.119318 5.77841 0ZM3.54545 8.23295C3.94034 8.23295 4.27983 8.13352 4.56392 7.93466C4.85085 7.7358 5.07102 7.45597 5.22443 7.09517C5.37784 6.73153 5.45455 6.30398 5.45455 5.8125C5.45455 5.33523 5.37642 4.92898 5.22017 4.59375C5.06676 4.25852 4.84659 4.00284 4.55966 3.8267C4.27273 3.65057 3.92898 3.5625 3.52841 3.5625C3.2358 3.5625 2.97301 3.61222 2.74006 3.71165C2.5071 3.81108 2.30824 3.95739 2.14347 4.15057C1.97869 4.34375 1.85085 4.57955 1.75994 4.85795C1.67188 5.13636 1.625 5.45455 1.61932 5.8125C1.61932 6.54545 1.79119 7.1321 2.13494 7.57244C2.47869 8.01278 2.94886 8.23295 3.54545 8.23295Z" fill="black"/>
</svg>
